# xmcd
#
# Track frame offsets:
#	150
#	11320
#	24962
#	35095
#	55062
#	70015
#	87207
#	105810
#	119232
#	136125
#	155687
#	173167
#	188455
#	205107
#	222125
#	238102
#
# Disc length: 3353
#
# Revision: 3
# Processed by: cddbd v1.5.2PL0 Copyright (c) Steve Scherf et al.
# Submitted via: ExactAudioCopy v0.95a4
# Normalized: r2:TDELIM( - )
#
DISCID=ca0d1710
DTITLE=Various Artist - New Country 2
DYEAR=1995
DGENRE=Country
TTITLE0=Tracy Lawrence - If The Good Die Young
TTITLE1=David Ball - Thinkin' Problem
TTITLE2=Clay Walker - If I Could Make A Living
TTITLE3=John Michael Montgomery - I Swear
TTITLE4=Faith Hill - Take Me As I Am
TTITLE5=Neal McCoy - No Doubt About It
TTITLE6=Patricia Conroy - Somebody's Leavin'
TTITLE7=Dwight Yoakam - The Pocket Of A Clown
TTITLE8=Little Texas - Kick A Little
TTITLE9=Travis Tritt - Foolish Pride
TTITLE10=George Fox - Wear And Tear On My Heart
TTITLE11=Tandy Travis - Before You Kill Us All
TTITLE12=Carlene Carter - Unbreakable Heart
TTITLE13=The Jonner Brothers - If I Had Us
TTITLE14=Confederate Railroad - Elvis And Andy
TTITLE15=Jeff Foxworthy - Redneck Stomp
EXTD=
EXTT0=
EXTT1=
EXTT2=
EXTT3=
EXTT4=
EXTT5=
EXTT6=
EXTT7=
EXTT8=
EXTT9=
EXTT10=
EXTT11=
EXTT12=
EXTT13=
EXTT14=
EXTT15=
PLAYORDER=
